<?xml version="1.0" encoding="UTF-8" standalone="no"?>
<!DOCTYPE svg PUBLIC "-//W3C//DTD SVG 1.1//EN" "http://www.w3.org/Graphics/SVG/1.1/DTD/svg11.dtd">
<svg fill-rule="evenodd" width="100%" height="100%" viewBox="0 0 32 32" version="1.1" xmlns="http://www.w3.org/2000/svg" xmlns:xlink="http://www.w3.org/1999/xlink" xml:space="preserve" xmlns:serif="http://www.serif.com/" style="fill-rule:evenodd;clip-rule:evenodd;stroke-linejoin:round;stroke-miterlimit:2;">
    <g transform="matrix(1.15293,0,0,1.15293,-1.91756,-2.43489)">
        <path d="M19.594,2.844L17.969,3.969L23.563,12.188L25.188,11.063L19.594,2.844ZM15.375,6.531L14.063,8.031L21.563,14.531L22.875,13.031L15.375,6.531ZM12.375,10.906L11.469,12.688L20.313,17.188L21.219,15.406L12.375,10.906ZM10.656,15.438L10.219,17.375L19.875,19.656L20.313,17.719L10.656,15.438ZM6,18L6,29L24,29L24,18L22,18L22,27L8,27L8,18L6,18ZM10.094,19.688L9.969,21.688L19.875,22.25L20,20.25L10.094,19.688ZM10,23L10,25L19.938,25L19.938,23L10,23Z" />
    </g>
</svg>
